<?xml version="1.0" encoding="UTF-8"?>
<!DOCTYPE svg PUBLIC "-//W3C//DTD SVG 1.1//EN" "http://www.w3.org/Graphics/SVG/1.1/DTD/svg11.dtd">
<!-- Creator: CorelDRAW 2018 (64 Bit Versão de avaliação) -->
<svg xmlns="http://www.w3.org/2000/svg" xml:space="preserve" width="25.4mm" height="6.1568mm" version="1.1" style="shape-rendering:geometricPrecision; text-rendering:geometricPrecision; image-rendering:optimizeQuality; fill-rule:evenodd; clip-rule:evenodd"
viewBox="0 0 3256.41 789.33"
 xmlns:xlink="http://www.w3.org/1999/xlink">
 <defs>
  <style type="text/css">
   <![CDATA[
    .fil0 {fill:#FEFEFE}
    .fil1 {fill:#FEFEFE;fill-rule:nonzero}
   ]]>
  </style>
 </defs>
 <g id="Camada_x0020_1">
  <metadata id="CorelCorpID_0Corel-Layer"/>
  <g id="_2009898276592">
   <g id="_2752513161472">
    <path class="fil0" d="M443.04 768.01l203.55 -117.6 4.63 -2.91c46.73,-29.1 74.97,-80.13 74.97,-135.24l0 -235.05c0,-57 -30.29,-109.73 -79.6,-138.32l-203.55 -117.44c-49.47,-28.59 -110.24,-28.59 -159.72,0l-203.55 117.44c-49.47,28.59 -79.77,81.32 -79.77,138.32l0 235.05c0,57 30.29,109.73 79.77,138.15l203.55 117.6c49.47,28.42 110.24,28.42 159.72,0zm146.04 -558.6l-204.76 142.27c-14.04,11.13 -22.94,28.24 -22.94,47.42 0,18.65 8.38,35.26 21.56,46.38l195.85 135.94 3.94 2.73c34.08,-22.08 54.62,-59.91 54.62,-100.65l0 -177.53c0,-38.18 -18.14,-73.96 -48.28,-96.55l0.01 -0.01zm-98.27 428.15l-185.58 -128.91c-15.4,46.4 -39.03,89.88 -69.33,129.26l66.94 38.68c37.32,21.41 83.21,21.41 120.69,0l67.28 -39.03zm-337.59 -47.42c32.69,-37.65 57,-80.63 70.36,-126.68 0.86,-3.26 1.72,-6.5 2.56,-9.76 6,-23.63 9.08,-48.1 9.08,-73.27 0,-13.69 -0.86,-27.05 -2.74,-40.58 -3.08,-22.42 -8.55,-44.17 -16.44,-65.22l80.46 -46.4c7.19,17.81 13.01,36.12 17.64,54.95l183.51 -127.54 -74.13 -42.79c-37.49,-21.56 -83.37,-21.56 -120.69,0l-52.21 30.13c10.44,15.24 20.03,30.99 28.41,47.26l0 0.17 -80.28 46.22c-8.56,-16.09 -18.49,-31.67 -29.79,-46.56l-19.86 11.47c-37.31,21.56 -60.26,61.28 -60.26,104.42l0 177.53c0,42.97 22.94,82.86 60.26,104.26l4.12 2.4 0 0z"/>
    <g>
     <path class="fil1" d="M843.46 269.85c-5.47,0 -8.22,2.74 -8.22,8.04l0 285.55c0,6 2.74,8.56 8.22,8.56l63.68 0c5.31,0 8.05,-2.56 8.05,-8.56l0 -285.55c0,-5.29 -2.74,-8.04 -8.05,-8.04l-63.68 0z"/>
     <path class="fil1" d="M959.36 154.29c-5.47,0 -8.22,2.73 -8.22,8.22l0 400.92c0,6 2.74,8.56 8.22,8.56l63.68 0c5.31,0 8.05,-2.56 8.05,-8.56l0 -400.92c0,-5.49 -2.74,-8.22 -8.05,-8.22l-63.68 0z"/>
     <path class="fil1" d="M1178.82 267.1c-37.82,0 -70.18,2.74 -97.74,8.22 -5.82,1.54 -7.54,2.56 -7.54,8.56l0 44.17c0,6.5 1.72,8.22 7.54,8.22l97.74 0c34.08,0 50.68,12.32 50.68,37.14l0 19.53 -68.47 0c-38.35,0 -66.42,5.82 -84.23,18.31 -17.28,12.33 -25.85,35.62 -26.36,70.19 0.51,41.44 9.59,65.74 32.87,78.74 23.79,12.5 46.38,14.55 91.76,14.55 48.62,0 89.53,-3.76 122.56,-11.29 8.05,-2.74 11.82,-8.04 11.82,-16.77l0 -186.77c0,-31.85 -9.24,-54.96 -27.56,-70.03 -18.32,-15.23 -52.9,-22.77 -103.05,-22.77l-0.01 0zm50.68 237.45c-12.83,3.77 -30.64,5.47 -53.92,5.47 -34.58,0 -45.88,-7.53 -45.88,-32.87 0,-23.79 9.76,-32.53 37.83,-32.53l61.97 0 0 59.92 0 0z"/>
     <path class="fil1" d="M1479.78 267.1c-58.72,0 -101.35,3.26 -128.91,9.24 -5.47,1.03 -8.04,1.54 -8.04,8.05l0 279.04c0,5.99 2.56,8.56 8.04,8.56l64.21 0c5.47,0 8.04,-2.58 8.04,-8.56l0 -227.17 49.14 0c28.06,0 37.82,0.51 46.9,11.81 10.27,11.29 10.78,28.59 10.78,69.17l0 146.19c0,5.99 2.74,8.56 8.22,8.56l63.69 0c5.82,0 8.55,-2.58 8.55,-8.56l0 -166.74c0,-56.14 -5.31,-86.45 -26.87,-105.79 -21.05,-19.51 -49.13,-23.79 -103.74,-23.79l0 0z"/>
     <path class="fil1" d="M1727.5 154.29c-5.49,0 -8.05,2.73 -8.05,8.73l0 400.41c0,6 2.56,8.56 8.05,8.56l63.68 0c5.31,0 8.05,-2.56 8.05,-8.56l0 -156.46 101 159.21c2.05,3.77 5.82,5.82 11.81,5.82l67.96 0c11.31,0 14.55,-4.79 9.24,-14.55l-110.59 -168.79 86.79 -108.54c6,-7.01 4.28,-10.27 -4.78,-10.27l-72.94 0c-4.79,0 -8.55,1.54 -11.29,5.47l-77.21 98.1 0 -210.4c0,-6 -2.74,-8.73 -8.05,-8.73l-63.68 0z"/>
     <path class="fil1" d="M2119.36 267.1c-37.67,0 -70.19,2.74 -97.58,8.22 -6,1.54 -7.71,2.56 -7.71,8.56l0 44.17c0,6.5 1.71,8.22 7.71,8.22l97.58 0c34.06,0 50.85,12.32 50.85,37.14l0 19.53 -68.65 0c-38.35,0 -66.42,5.82 -84.23,18.31 -17.12,12.33 -25.85,35.62 -26.36,70.19 0.51,41.44 9.76,65.74 32.87,78.74 23.79,12.5 46.4,14.55 91.76,14.55 48.62,0 89.54,-3.76 122.58,-11.29 8.04,-2.74 11.81,-8.04 11.81,-16.77l0 -186.77c0,-31.85 -9.24,-54.96 -27.56,-70.03 -18.31,-15.23 -52.9,-22.77 -103.05,-22.77l0 0zm50.85 237.45c-13.01,3.77 -30.82,5.47 -54.1,5.47 -34.41,0 -45.88,-7.53 -45.88,-32.87 0,-23.79 9.76,-32.53 37.83,-32.53l62.14 0 0 59.92 0.01 0z"/>
     <path class="fil1" d="M2291.91 269.85c-5.29,0 -8.04,2.74 -8.04,8.04l0 285.55c0,6 2.74,8.56 8.04,8.56l63.69 0c5.47,0 8.04,-2.56 8.04,-8.56l0 -285.55c0,-5.29 -2.56,-8.04 -8.04,-8.04l-63.69 0z"/>
     <path class="fil1" d="M2531.41 267.1c-56.67,0 -93.81,10.27 -112.81,30.31 -18.83,19.86 -28.08,59.91 -28.08,119.14 0,62.14 8.73,104.26 25.33,125.83 17.29,21.56 50.33,32.35 99.46,32.35 25.33,0 47.42,-1.03 66.26,-3.24l0 101c0,5.31 2.73,8.04 8.22,8.04l63.68 0c5.31,0 8.05,-2.73 8.05,-8.04l0 -381.59c0,-7.01 -3.77,-11.81 -11.31,-13.53 -43.31,-7.01 -82.68,-10.27 -118.81,-10.27l0 0zm50.17 235.4c-12.85,1.54 -29.1,2.56 -48.45,2.56 -27.05,0 -44.35,-5.31 -51.87,-15.58 -7.03,-10.78 -10.78,-34.06 -10.78,-69 0,-34.06 3.24,-56.65 9.76,-67.62 6.33,-11.29 22.08,-16.6 47.42,-16.6l53.92 0 0 166.23z"/>
     <path class="fil1" d="M2889.72 269.85c-5.47,0 -8.22,2.74 -8.22,8.04l0 227.86 -48.45 0c-36.81,0 -47.08,-3.24 -53.58,-24.82 -3.09,-11.47 -4.79,-30.29 -4.79,-56.67l0 -146.37c0,-5.29 -2.74,-8.04 -7.54,-8.04l-63.68 0c-5.99,0 -8.73,2.74 -8.73,8.04l0 166.74c0,56.67 5.47,86.97 26.54,106.31 21.56,19.53 49.13,23.79 103.56,23.79 54.62,0 97.76,-3.24 129.59,-9.06 5.82,-1.72 7.54,-2.74 7.54,-9.24l0 -278.54c0,-5.29 -2.74,-8.04 -7.54,-8.04l-64.71 0 0 0z"/>
     <path class="fil1" d="M3123.74 267.1c-54.62,0 -90.74,10.27 -108.54,30.82 -17.81,20.03 -26.88,60.94 -26.88,123.09 0,61.45 9.08,102.54 26.88,122.91 17.79,20.54 53.92,30.82 108.54,30.82 44.85,0 78.74,-2.74 103.05,-7.54 4.79,-0.51 7.54,-3.77 7.54,-8.56l0 -44.85c0,-5.47 -2.74,-8.05 -8.05,-8.05l-95.53 0c-24.31,0 -40.58,-3.77 -48.62,-10.78 -8.05,-7.01 -11.82,-22.77 -12.33,-46.56l169.31 0c13.53,0 17.29,-3.77 17.29,-14.55l0 -16.6c-0.51,-59.92 -9.08,-99.97 -26.87,-119.83 -17.29,-20.03 -52.38,-30.31 -105.79,-30.31l0 0zm0 69.17c39.37,0 51.87,12.83 52.38,59.91l-107 0c0.68,-47.08 13.53,-59.91 54.62,-59.91l0 0z"/>
     <path class="fil0" d="M2290.55 234.24l66.42 0c3.76,0 6.67,-3.09 6.67,-6.68l0 -66.42c0,-3.77 -2.91,-6.85 -6.67,-6.85l-66.42 0c-3.6,0 -6.68,3.08 -6.68,6.85l0 66.42c0,3.59 3.08,6.68 6.68,6.68z"/>
     <path class="fil0" d="M842.09 234.24l66.42 0c3.6,0 6.68,-3.09 6.68,-6.68l0 -66.42c0,-3.77 -3.08,-6.85 -6.68,-6.85l-66.42 0c-3.77,0 -6.85,3.08 -6.85,6.85l0 66.42c0,3.59 3.08,6.68 6.85,6.68z"/>
    </g>
   </g>
  </g>
 </g>
</svg>
