<?xml version="1.0" encoding="UTF-8"?>
<!DOCTYPE svg PUBLIC "-//W3C//DTD SVG 1.1//EN" "http://www.w3.org/Graphics/SVG/1.1/DTD/svg11.dtd">
<!-- Creator: CorelDRAW 2018 (64 Bit Versão de avaliação) -->
<svg xmlns="http://www.w3.org/2000/svg" xml:space="preserve" width="25.4mm" height="6.1768mm" version="1.1" style="shape-rendering:geometricPrecision; text-rendering:geometricPrecision; image-rendering:optimizeQuality; fill-rule:evenodd; clip-rule:evenodd"
viewBox="0 0 675.53 164.28"
 xmlns:xlink="http://www.w3.org/1999/xlink">
 <defs>
  <style type="text/css">
   <![CDATA[
    .fil0 {fill:#FEFEFE;fill-rule:nonzero}
   ]]>
  </style>
 </defs>
 <g id="Camada_x0020_1">
  <metadata id="CorelCorpID_0Corel-Layer"/>
  <g id="_2378758039280">
   <g id="_2776464823984">
    <path class="fil0" d="M429.06 72.18l0 22.8c0,19.72 7.61,31.85 27.13,31.85 9.6,0 17.92,-2.18 24.98,-4.88l0 42.32 26.06 0 0 -126.12c-10.86,-1.79 -24.79,-3.06 -35.82,-3.06 -36.37,0 -42.35,16.1 -42.35,37.09zm52.11 27.13c-4.88,2.54 -11.03,4.91 -16.65,4.91 -6.87,0 -9.4,-3.64 -9.4,-9.43l0 -22.8c0,-8.3 2.35,-14.28 15.39,-14.28 3.61,0 6.87,0 10.67,0.36l0 41.25z"/>
    <path class="fil0" d="M26.06 27.68l0 -27.68 -26.06 0 0 27.68 26.06 0zm0 99.15l0 -91.85 -26.06 0 0 91.85 26.06 0z"/>
    <polygon class="fil0" points="60.82,126.84 60.82,0 34.77,0 34.77,126.84 "/>
    <path class="fil0" d="M140.81 126.84l0 -58.1c0,-24.43 -6.7,-33.64 -37.28,-33.64 -10.15,0 -23.35,1.79 -31.68,4.33l3.45 19.55c8.33,-1.63 16.1,-2.53 23.88,-2.53 13.93,0 15.58,3.09 15.58,12.13l0 6.7 -19.03 0c-18.09,0 -26.22,7.06 -26.22,24.79 0,15 6.7,26.77 22.97,26.77 5.98,0 15.03,-1.82 25.17,-7.42l1.79 7.42 21.37 0zm-26.06 -23.36c-4,1.82 -7.8,3.09 -13.23,3.09 -5.05,0 -7.03,-1.99 -7.03,-6.87 0,-4.91 2.15,-6.34 7.77,-6.34l12.49 0 0 10.12z"/>
    <path class="fil0" d="M228.49 126.84l0 -62.95c0,-17.34 -5.35,-28.79 -20.68,-28.79 -10.34,0 -24.73,3.31 -35.79,8.66l-2.78 -8.69 -19.74 0 0 91.76 26.58 0 0 -59.45c5.71,-3.14 14.59,-6.45 19.38,-6.45 4.6,0 6.45,2.4 6.45,6.45l0 59.45 26.58 0z"/>
    <path class="fil0" d="M262.99 126.84l0 -126.84 -26.06 0 0 126.84 26.06 0zm3.45 -44.34l23.52 44.34 27.88 0 -24.26 -44.34 19.22 -36.29 -1.32 -7.5 -22.58 0 -22.44 43.79z"/>
    <path class="fil0" d="M385.63 126.84l0 -58.1c0,-24.43 -6.7,-33.64 -37.28,-33.64 -10.15,0 -23.35,1.79 -31.68,4.33l3.45 19.55c8.33,-1.63 16.1,-2.53 23.88,-2.53 13.93,0 15.58,3.09 15.58,12.13l0 6.7 -19.03 0c-18.09,0 -26.22,7.06 -26.22,24.79 0,15 6.7,26.77 22.97,26.77 5.98,0 15.03,-1.82 25.17,-7.42l1.79 7.42 21.37 0zm-26.06 -23.36c-4,1.82 -7.8,3.09 -13.21,3.09 -5.07,0 -7.06,-1.99 -7.06,-6.87 0,-4.91 2.15,-6.34 7.77,-6.34l12.49 0 0 10.12z"/>
    <path class="fil0" d="M420.38 27.68l0 -27.68 -26.06 0 0 27.68 26.06 0zm0 99.15l0 -91.85 -26.06 0 0 91.85 26.06 0z"/>
    <path class="fil0" d="M515.91 34.91l0 63.69c0,17.01 5.27,28.24 20.27,28.24 10.15,0 24.27,-3.26 35.1,-8.52l2.73 8.55 19.36 0 0 -91.95 -26.06 0 0 60.24c-5.6,3.09 -14.28,6.34 -19,6.34 -4.52,0 -6.34,-2.34 -6.34,-6.34l0 -60.24 -26.06 0z"/>
    <path class="fil0" d="M675.53 90.11l0 -18.47c0,-19.16 -6.34,-36.53 -35.65,-36.53 -29.31,0 -37.83,16.27 -37.83,35.27l0 20.65c0,21.7 10.86,35.82 39.46,35.82 12.3,0 25.15,-2.73 33.11,-5.63l-3.81 -19.52c-7.77,2.35 -18.64,3.81 -26.77,3.81 -11.94,0 -15.94,-2.73 -15.94,-12.85l0 -2.54 47.43 0zm-24.62 -19.55l-22.8 0 0 -3.81c0,-6.15 2.9,-11.22 11.94,-11.22 9.07,0 10.86,5.07 10.86,11.22l0 3.81z"/>
   </g>
  </g>
 </g>
</svg>
